#!OML:ASF G:\JayActor3\Patient Classification 1\Patient 1\Session 2\male.ASF
:FULLY-SPECIFIED
:DEGREES
2959
root -8.37726 16.6058 -5.45695 1824.54 -97.1377 -748.805
lowerback -1.04749 -2.96782 -4.03369
upperback -2.51871 -4.01315 -0.665141
thorax -1.77553 -1.95495 1.5832
lowerneck -4.94993 2.77244 0.702239
upperneck 7.27918 2.92632 7.73729
head 3.12334 1.7094 2.54723
rclavicle 4.61677e-014 -3.97569e-015
rhumerus -58.4769 31.6446 -113.481
rradius 104.218
rwrist -16.4593
rhand 8.65263 8.16255
rfingers 7.12502
rthumb 33.8473 -18.655
lclavicle 4.61677e-014 -3.97569e-015
lhumerus -11.5621 -38.5133 91.0527
lradius 136.112
lwrist 35.4375
lhand -6.05993 6.34626
lfingers 7.12502
lthumb 19.7747 35.3604
rfemur -22.5246 9.34558 15.3222
rtibia 69.1938
rfoot -16.9818 -9.23156
rtoes 2.72603
lfemur 4.85461 16.6433 -29.001
ltibia 16.3359
lfoot -13.5516 3.57055
ltoes -0.293649
2960
root -8.45964 16.596 -5.45404 1824.71 -97.1662 -748.985
lowerback -0.979441 -3.01205 -4.01676
upperback -2.49711 -4.07386 -0.654994
thorax -1.78837 -1.98509 1.58721
lowerneck -4.96226 2.99228 0.843504
upperneck 7.24423 3.2126 7.73017
head 3.10378 1.85448 2.52943
rclavicle 2.00773e-014 -1.03368e-014
rhumerus -58.4277 31.6744 -113.427
rradius 104.24
rwrist -16.43
rhand 8.63611 8.17997
rfingers 7.12502
rthumb 33.8316 -18.641
lclavicle 2.00773e-014 -1.03368e-014
lhumerus -11.5128 -38.5097 91.1731
lradius 136.132
lwrist 35.4269
lhand -6.07753 6.33363
lfingers 7.12502
lthumb 19.7578 35.3495
rfemur -23.2959 9.86776 15.29
rtibia 68.199
rfoot -17.5194 -9.22702
rtoes 2.45882
lfemur 5.22566 16.3958 -29.0765
ltibia 16.263
lfoot -13.7161 3.91393
ltoes -0.552541
2961
root -8.54299 16.589 -5.4509 1824.94 -97.1785 -749.205
lowerback -0.91874 -3.06256 -3.99873
upperback -2.48831 -4.14314 -0.641946
thorax -1.80969 -2.0193 1.59367
lowerneck -4.98534 3.20344 0.982928
upperneck 7.22991 3.48484 7.72725
head 3.09437 1.99327 2.51384
rclavicle -4.27884e-014 -1.53064e-014
rhumerus -58.3791 31.704 -113.373
rradius 104.265
rwrist -16.3809
rhand 8.59532 8.21379
rfingers 7.12502
rthumb 33.7929 -18.6157
lclavicle -4.27884e-014 -1.53064e-014
lhumerus -11.5112 -38.5179 91.3258
lradius 136.152
lwrist 35.41
lhand -6.09726 6.31799
lfingers 7.12502
lthumb 19.7389 35.3358
rfemur -24.0231 10.3288 15.2537
rtibia 67.0842
rfoot -17.9832 -9.14938
rtoes 2.21879
lfemur 5.62907 16.1323 -29.1581
ltibia 16.0989
lfoot -13.8154 4.25606
ltoes -0.838805
2962
root -8.62721 16.585 -5.44792 1825.18 -97.1732 -749.426
lowerback -0.872731 -3.12022 -3.983
upperback -2.48413 -4.22127 -0.620622
thorax -1.8263 -2.05788 1.6092
lowerneck -5.01584 3.40487 1.11665
upperneck 7.21888 3.74402 7.72255
head 3.0884 2.12557 2.4986
rclavicle -1.90088e-014 -3.37934e-015
rhumerus -58.3206 31.745 -113.316
rradius 104.288
rwrist -16.3241
rhand 8.53812 8.25744
rfingers 7.12502
rthumb 33.7385 -18.584
lclavicle -1.90088e-014 -3.37934e-015
lhumerus -11.5384 -38.5345 91.5005
lradius 136.169
lwrist 35.3732
lhand -6.12566 6.30348
lfingers 7.12502
lthumb 19.7116 35.3241
rfemur -24.7034 10.7324 15.2261
rtibia 65.8549
rfoot -18.3834 -9.02563
rtoes 2.07331
lfemur 6.06951 15.8652 -29.2346
ltibia 15.8357
lfoot -13.8367 4.58298
ltoes -1.18465
2963
root -8.71207 16.5842 -5.4452 1825.5 -97.156 -749.706
lowerback -0.837558 -3.18289 -3.97752
upperback -2.48665 -4.3058 -0.59462
thorax -1.84231 -2.09942 1.63481
lowerneck -5.04625 3.59664 1.24173
upperneck 7.20601 3.99096 7.71802
head 3.08252 2.25154 2.48454
rclavicle -1.19271e-015 3.97569e-015
rhumerus -58.2575 31.7907 -113.26
rradius 104.309
rwrist -16.2644
rhand 8.48332 8.3018
rfingers 7.12502
rthumb 33.6864 -18.551
lclavicle -1.19271e-015 3.97569e-015
lhumerus -11.5988 -38.5624 91.6993
lradius 136.186
lwrist 35.3115
lhand -6.15144 6.28696
lfingers 7.12502
lthumb 19.6868 35.3101
rfemur -25.3393 11.0784 15.1997
rtibia 64.5199
rfoot -18.7412 -8.86614
rtoes 2.12909
lfemur 6.5493 15.6182 -29.3084
ltibia 15.4698
lfoot -13.7732 4.8777
ltoes -1.63002
2964
root -8.79778 16.5863 -5.44361 1825.72 -97.1268 -749.881
lowerback -0.818874 -3.24667 -3.97407
upperback -2.4877 -4.39067 -0.557221
thorax -1.84643 -2.14121 1.67213
lowerneck -5.08467 3.77711 1.35617
upperneck 7.18798 4.224 7.71029
head 3.07713 2.37028 2.47096
rclavicle 2.66868e-014 -9.93923e-016
rhumerus -58.185 31.8401 -113.205
rradius 104.326
rwrist -16.2069
rhand 8.46593 8.33212
rfingers 7.12502
rthumb 33.6699 -18.5243
lclavicle 2.66868e-014 -9.93923e-016
lhumerus -11.6823 -38.6076 91.9154
lradius 136.205
lwrist 35.2212
lhand -6.18885 6.27848
lfingers 7.12502
lthumb 19.6508 35.3053
rfemur -25.9283 11.3855 15.206
rtibia 63.0871
rfoot -19.0586 -8.71758
rtoes 2.27319
lfemur 7.07111 15.4055 -29.3505
ltibia 15.0055
lfoot -13.6278 5.1295
ltoes -2.18072
2965
root -8.88402 16.5913 -5.44313 1825.87 -97.0894 -749.977
lowerback -0.811098 -3.30924 -3.97436
upperback -2.49213 -4.47335 -0.510305
thorax -1.84691 -2.18179 1.72067
lowerneck -5.11232 3.94771 1.46483
upperneck 7.15244 4.44708 7.69058
head 3.06445 2.48299 2.45315
rclavicle 3.47873e-016 1.13307e-014
rhumerus -58.1135 31.8853 -113.155
rradius 104.336
rwrist -16.16
rhand 8.49812 8.33652
rfingers 7.12502
rthumb 33.7005 -18.5132
lclavicle 3.47873e-016 1.13307e-014
lhumerus -11.7985 -38.6712 92.1547
lradius 136.228
lwrist 35.1152
lhand -6.21869 6.26931
lfingers 7.12502
lthumb 19.6221 35.299
rfemur -26.4746 11.6558 15.2401
rtibia 61.5681
rfoot -19.3368 -8.58734
rtoes 2.54767
lfemur 7.63662 15.243 -29.3608
ltibia 14.4381
lfoot -13.3995 5.32097
ltoes -2.80317
2966
root -8.97075 16.5983 -5.44362 1826.05 -97.0519 -750.085
lowerback -0.816251 -3.36905 -3.98917
upperback -2.49501 -4.55166 -0.458898
thorax -1.83724 -2.22012 1.78088
lowerneck -5.1403 4.11063 1.56947
upperneck 7.10448 4.66234 7.65749
head 3.04834 2.59105 2.43092
rclavicle -4.31363e-014 -1.13307e-014
rhumerus -58.0383 31.9267 -113.109
rradius 104.341
rwrist -16.1274
rhand 8.58522 8.31337
rfingers 7.12502
rthumb 33.7833 -18.5182
lclavicle -4.31363e-014 -1.13307e-014
lhumerus -11.9452 -38.753 92.4155
lradius 136.256
lwrist 35.0088
lhand -6.23918 6.27119
lfingers 7.12502
lthumb 19.6024 35.3029
rfemur -26.9765 11.8871 15.2875
rtibia 59.9751
rfoot -19.558 -8.4889
rtoes 2.84337
lfemur 8.24683 15.1429 -29.3498
ltibia 13.7755
lfoot -13.0944 5.44122
ltoes -3.49464
2967
root -9.05824 16.6075 -5.44477 1826.27 -97.0126 -750.242
lowerback -0.827956 -3.42642 -4.01514
upperback -2.49645 -4.6264 -0.406619
thorax -1.82155 -2.25663 1.8476
lowerneck -5.15892 4.26604 1.67397
upperneck 7.03939 4.87063 7.6079
head 3.02548 2.69458 2.40207
rclavicle -1.66979e-014 -1.98785e-015
rhumerus -57.9675 31.9607 -113.072
rradius 104.342
rwrist -16.1089
rhand 8.71442 8.26974
rfingers 7.12502
rthumb 33.906 -18.5348
lclavicle -1.66979e-014 -1.98785e-015
lhumerus -12.1294 -38.8559 92.7009
lradius 136.29
lwrist 34.9049
lhand -6.24918 6.27401
lfingers 7.12502
lthumb 19.5928 35.3067
rfemur -27.4288 12.0709 15.345
rtibia 58.3216
rfoot -19.704 -8.42135
rtoes 3.20872
lfemur 8.92181 15.105 -29.3182
ltibia 13.002
lfoot -12.7231 5.48261
ltoes -4.15501
2968
root -9.14607 16.618 -5.44622 1826.47 -96.9701 -750.378
lowerback -0.843652 -3.47947 -4.03706
upperback -2.49668 -4.69511 -0.353032
thorax -1.80273 -2.29027 1.91305
lowerneck -5.17066 4.41694 1.78201
upperneck 6.96007 5.07533 7.54161
head 2.99739 2.79544 2.36621
rclavicle -4.0403e-014 -6.36111e-015
rhumerus -57.9004 31.9861 -113.041
rradius 104.339
rwrist -16.1004
rhand 8.85525 8.21515
rfingers 7.12502
rthumb 34.0398 -18.5598
lclavicle -4.0403e-014 -6.36111e-015
lhumerus -12.3522 -38.9798 93.0115
lradius 136.328
lwrist 34.8143
lhand -6.24882 6.27665
lfingers 7.12502
lthumb 19.5931 35.3093
rfemur -27.8317 12.2049 15.4236
rtibia 56.6217
rfoot -19.7546 -8.38375
rtoes 3.6172
lfemur 9.6722 15.1118 -29.2643
ltibia 12.0954
lfoot -12.2825 5.46706
ltoes -4.77105
